<svg width="37" height="37" viewBox="0 0 37 37" fill="none" xmlns="http://www.w3.org/2000/svg">
<circle cx="18.5" cy="18.5" r="18.5" fill="#2C3E50"/>
<g clip-path="url(#clip0_226_70)">
<path d="M20.1375 25.1188L26.7222 18.4999L20.1375 11.881C20.0781 11.8029 20.0025 11.7385 19.916 11.6922C19.8295 11.6458 19.734 11.6186 19.636 11.6124C19.5381 11.6061 19.4399 11.621 19.3482 11.656C19.2565 11.6909 19.1734 11.7452 19.1045 11.8151C19.0356 11.885 18.9825 11.9689 18.9488 12.0611C18.9151 12.1533 18.9017 12.2517 18.9093 12.3495C18.917 12.4474 18.9455 12.5425 18.9931 12.6283C19.0407 12.7142 19.1062 12.7888 19.1851 12.8471L24.1116 17.8147L11.004 17.8147C10.8223 17.8147 10.648 17.8869 10.5195 18.0154C10.391 18.1439 10.3188 18.3182 10.3188 18.4999C10.3188 18.6816 10.391 18.8559 10.5195 18.9844C10.648 19.1129 10.8223 19.1851 11.004 19.1851L24.1116 19.1851L19.1851 24.1527C19.057 24.2817 18.9854 24.4564 18.986 24.6382C18.9867 24.82 19.0595 24.9941 19.1886 25.1222C19.3176 25.2504 19.4922 25.322 19.674 25.3213C19.8559 25.3207 20.03 25.2478 20.1581 25.1188L20.1375 25.1188Z" fill="white"/>
</g>
<defs>
<clipPath id="clip0_226_70">
<rect width="24.6667" height="24.6667" fill="white" transform="translate(30.8333 6.16663) rotate(90)"/>
</clipPath>
</defs>
</svg>
